<svg width="226" height="32" viewBox="0 0 226 32" fill="none" xmlns="http://www.w3.org/2000/svg">
<path d="M4.688 4.28V9.88H12.208V13.432H4.688V19.352H13.168V23H0.208V0.631998H13.168V4.28H4.688ZM24.6313 18.872L29.1113 5.272H33.8793L27.3193 23H21.8793L15.3513 5.272H20.1513L24.6313 18.872ZM52.8755 13.752C52.8755 14.392 52.8328 14.968 52.7475 15.48H39.7875C39.8942 16.76 40.3422 17.7627 41.1315 18.488C41.9208 19.2133 42.8915 19.576 44.0435 19.576C45.7075 19.576 46.8915 18.8613 47.5955 17.432H52.4275C51.9155 19.1387 50.9342 20.5467 49.4835 21.656C48.0328 22.744 46.2515 23.288 44.1395 23.288C42.4328 23.288 40.8968 22.9147 39.5315 22.168C38.1875 21.4 37.1315 20.3227 36.3635 18.936C35.6168 17.5493 35.2435 15.9493 35.2435 14.136C35.2435 12.3013 35.6168 10.6907 36.3635 9.304C37.1102 7.91733 38.1555 6.85067 39.4995 6.104C40.8435 5.35733 42.3902 4.984 44.1395 4.984C45.8248 4.984 47.3288 5.34667 48.6515 6.072C49.9955 6.79733 51.0302 7.832 51.7555 9.176C52.5022 10.4987 52.8755 12.024 52.8755 13.752ZM48.2355 12.472C48.2142 11.32 47.7982 10.4027 46.9875 9.72C46.1768 9.016 45.1848 8.664 44.0115 8.664C42.9022 8.664 41.9635 9.00533 41.1955 9.688C40.4488 10.3493 39.9902 11.2773 39.8195 12.472H48.2355ZM60.6255 8.024C61.2015 7.08533 61.9482 6.34933 62.8655 5.816C63.8042 5.28267 64.8708 5.016 66.0655 5.016V9.72H64.8815C63.4735 9.72 62.4068 10.0507 61.6815 10.712C60.9775 11.3733 60.6255 12.5253 60.6255 14.168V23H56.1455V5.272H60.6255V8.024ZM76.027 4.984C77.3497 4.984 78.5123 5.25067 79.515 5.784C80.5177 6.296 81.307 6.968 81.883 7.8V5.272H86.395V23.128C86.395 24.7707 86.0643 26.232 85.403 27.512C84.7417 28.8133 83.7497 29.8373 82.427 30.584C81.1043 31.352 79.5043 31.736 77.627 31.736C75.1097 31.736 73.0403 31.1493 71.419 29.976C69.819 28.8027 68.9123 27.2027 68.699 25.176H73.147C73.3817 25.9867 73.883 26.6267 74.651 27.096C75.4403 27.5867 76.3897 27.832 77.499 27.832C78.8003 27.832 79.8563 27.4373 80.667 26.648C81.4777 25.88 81.883 24.7067 81.883 23.128V20.376C81.307 21.208 80.507 21.9013 79.483 22.456C78.4803 23.0107 77.3283 23.288 76.027 23.288C74.5337 23.288 73.1683 22.904 71.931 22.136C70.6937 21.368 69.7123 20.2907 68.987 18.904C68.283 17.496 67.931 15.8853 67.931 14.072C67.931 12.28 68.283 10.6907 68.987 9.304C69.7123 7.91733 70.683 6.85067 71.899 6.104C73.1363 5.35733 74.5123 4.984 76.027 4.984ZM81.883 14.136C81.883 13.048 81.6697 12.12 81.243 11.352C80.8163 10.5627 80.2403 9.96533 79.515 9.56C78.7897 9.13333 78.011 8.92 77.179 8.92C76.347 8.92 75.579 9.12267 74.875 9.528C74.171 9.93333 73.595 10.5307 73.147 11.32C72.7203 12.088 72.507 13.0053 72.507 14.072C72.507 15.1387 72.7203 16.0773 73.147 16.888C73.595 17.6773 74.171 18.2853 74.875 18.712C75.6003 19.1387 76.3683 19.352 77.179 19.352C78.011 19.352 78.7897 19.1493 79.515 18.744C80.2403 18.3173 80.8163 17.72 81.243 16.952C81.6697 16.1627 81.883 15.224 81.883 14.136ZM95.2505 8.024C95.8265 7.08533 96.5732 6.34933 97.4905 5.816C98.4292 5.28267 99.4958 5.016 100.691 5.016V9.72H99.5065C98.0985 9.72 97.0318 10.0507 96.3065 10.712C95.6025 11.3733 95.2505 12.5253 95.2505 14.168V23H90.7705V5.272H95.2505V8.024ZM120.188 13.752C120.188 14.392 120.145 14.968 120.06 15.48H107.1C107.207 16.76 107.655 17.7627 108.444 18.488C109.233 19.2133 110.204 19.576 111.356 19.576C113.02 19.576 114.204 18.8613 114.908 17.432H119.74C119.228 19.1387 118.247 20.5467 116.796 21.656C115.345 22.744 113.564 23.288 111.452 23.288C109.745 23.288 108.209 22.9147 106.844 22.168C105.5 21.4 104.444 20.3227 103.676 18.936C102.929 17.5493 102.556 15.9493 102.556 14.136C102.556 12.3013 102.929 10.6907 103.676 9.304C104.423 7.91733 105.468 6.85067 106.812 6.104C108.156 5.35733 109.703 4.984 111.452 4.984C113.137 4.984 114.641 5.34667 115.964 6.072C117.308 6.79733 118.343 7.832 119.068 9.176C119.815 10.4987 120.188 12.024 120.188 13.752ZM115.548 12.472C115.527 11.32 115.111 10.4027 114.3 9.72C113.489 9.016 112.497 8.664 111.324 8.664C110.215 8.664 109.276 9.00533 108.508 9.688C107.761 10.3493 107.303 11.2773 107.132 12.472H115.548ZM139.938 13.752C139.938 14.392 139.895 14.968 139.81 15.48H126.85C126.957 16.76 127.405 17.7627 128.194 18.488C128.983 19.2133 129.954 19.576 131.106 19.576C132.77 19.576 133.954 18.8613 134.658 17.432H139.49C138.978 19.1387 137.997 20.5467 136.546 21.656C135.095 22.744 133.314 23.288 131.202 23.288C129.495 23.288 127.959 22.9147 126.594 22.168C125.25 21.4 124.194 20.3227 123.426 18.936C122.679 17.5493 122.306 15.9493 122.306 14.136C122.306 12.3013 122.679 10.6907 123.426 9.304C124.173 7.91733 125.218 6.85067 126.562 6.104C127.906 5.35733 129.453 4.984 131.202 4.984C132.887 4.984 134.391 5.34667 135.714 6.072C137.058 6.79733 138.093 7.832 138.818 9.176C139.565 10.4987 139.938 12.024 139.938 13.752ZM135.298 12.472C135.277 11.32 134.861 10.4027 134.05 9.72C133.239 9.016 132.247 8.664 131.074 8.664C129.965 8.664 129.026 9.00533 128.258 9.688C127.511 10.3493 127.053 11.2773 126.882 12.472H135.298ZM153.032 5.016C155.144 5.016 156.851 5.688 158.152 7.032C159.453 8.35467 160.104 10.2107 160.104 12.6V23H155.624V13.208C155.624 11.8 155.272 10.7227 154.568 9.976C153.864 9.208 152.904 8.824 151.688 8.824C150.451 8.824 149.469 9.208 148.744 9.976C148.04 10.7227 147.688 11.8 147.688 13.208V23H143.208V5.272H147.688V7.48C148.285 6.712 149.043 6.11467 149.96 5.688C150.899 5.24 151.923 5.016 153.032 5.016ZM176.469 4.28V9.88H183.989V13.432H176.469V19.352H184.949V23H171.989V0.631998H184.949V4.28H176.469ZM187.868 14.136C187.868 12.3013 188.242 10.7013 188.989 9.336C189.735 7.94933 190.77 6.88267 192.093 6.136C193.415 5.368 194.93 4.984 196.637 4.984C198.834 4.984 200.647 5.53867 202.077 6.648C203.527 7.736 204.498 9.272 204.989 11.256H200.157C199.901 10.488 199.463 9.89067 198.845 9.464C198.247 9.016 197.501 8.792 196.605 8.792C195.325 8.792 194.311 9.26133 193.565 10.2C192.818 11.1173 192.445 12.4293 192.445 14.136C192.445 15.8213 192.818 17.1333 193.565 18.072C194.311 18.9893 195.325 19.448 196.605 19.448C198.418 19.448 199.602 18.6373 200.157 17.016H204.989C204.498 18.936 203.527 20.4613 202.077 21.592C200.626 22.7227 198.813 23.288 196.637 23.288C194.93 23.288 193.415 22.9147 192.093 22.168C190.77 21.4 189.735 20.3333 188.989 18.968C188.242 17.5813 187.868 15.9707 187.868 14.136ZM216.143 23.288C214.436 23.288 212.9 22.9147 211.535 22.168C210.169 21.4 209.092 20.3227 208.303 18.936C207.535 17.5493 207.151 15.9493 207.151 14.136C207.151 12.3227 207.545 10.7227 208.335 9.336C209.145 7.94933 210.244 6.88267 211.631 6.136C213.017 5.368 214.564 4.984 216.271 4.984C217.977 4.984 219.524 5.368 220.911 6.136C222.297 6.88267 223.385 7.94933 224.175 9.336C224.985 10.7227 225.391 12.3227 225.391 14.136C225.391 15.9493 224.975 17.5493 224.142 18.936C223.332 20.3227 222.223 21.4 220.815 22.168C219.428 22.9147 217.871 23.288 216.143 23.288ZM216.143 19.384C216.953 19.384 217.711 19.192 218.415 18.808C219.14 18.4027 219.716 17.8053 220.143 17.016C220.569 16.2267 220.783 15.2667 220.783 14.136C220.783 12.4507 220.335 11.16 219.439 10.264C218.564 9.34667 217.487 8.888 216.207 8.888C214.927 8.888 213.849 9.34667 212.975 10.264C212.121 11.16 211.695 12.4507 211.695 14.136C211.695 15.8213 212.111 17.1227 212.943 18.04C213.796 18.936 214.863 19.384 216.143 19.384Z" fill="#2E8B57"/>
</svg>
