<svg width="16" height="16" viewBox="0 0 16 16" fill="none" xmlns="http://www.w3.org/2000/svg">
<g id="Group 37996">
<path id="Vector 738 (Stroke)" fill-rule="evenodd" clip-rule="evenodd" d="M16 1.875C16 1.32272 15.4883 0.875 14.8571 0.875L1.14286 0.875C0.511675 0.875 0 1.32272 0 1.875C0 2.42728 0.511675 2.875 1.14286 2.875L14.8571 2.875C15.4883 2.875 16 2.42728 16 1.875Z" fill="#2E8B57"/>
<path id="Vector 739 (Stroke)" fill-rule="evenodd" clip-rule="evenodd" d="M16 8.125C16 7.57272 15.4627 7.125 14.8 7.125L5.2 7.125C4.53726 7.125 4 7.57272 4 8.125C4 8.67728 4.53726 9.125 5.2 9.125L14.8 9.125C15.4627 9.125 16 8.67728 16 8.125Z" fill="#2E8B57"/>
<path id="Vector 740 (Stroke)" fill-rule="evenodd" clip-rule="evenodd" d="M16 14.125C16 13.5727 15.403 13.125 14.6667 13.125L9.33333 13.125C8.59695 13.125 8 13.5727 8 14.125C8 14.6773 8.59695 15.125 9.33333 15.125L14.6667 15.125C15.403 15.125 16 14.6773 16 14.125Z" fill="#2E8B57"/>
</g>
</svg>
